<svg width="179" height="39" viewBox="0 0 179 39" fill="none" xmlns="http://www.w3.org/2000/svg">
<path fill-rule="evenodd" clip-rule="evenodd" d="M16.0323 38.7382C9.4114 37.9809 5.45634 36.7534 2.21916 34.4514C1.08413 33.6443 0 31.986 0 31.057C0 30.1777 4.84052 5.89239 5.21723 4.88174C5.59482 3.86869 6.36777 3.12829 7.85039 2.35947C10.084 1.20123 12.9249 0.443246 16.1203 0.15295C19.0912 -0.116937 26.8381 -0.0117396 29.0206 0.328127C31.3662 0.693383 34.1837 1.50014 35.5643 2.20182C37.4852 3.17817 38.1526 4.16416 38.669 6.78893C38.831 7.61222 39.503 10.9406 40.1622 14.1853C40.8215 17.4301 41.5749 21.2339 41.8365 22.6384C42.0981 24.0428 42.5492 26.3806 42.8388 27.8334C43.1543 29.4164 43.3359 30.8042 43.2919 31.2965C43.0455 34.052 38.4233 36.8396 31.9764 38.1208C27.6425 38.9821 20.5615 39.2563 16.0323 38.7382ZM35.329 32.9593C35.2581 33.8207 35.1192 34.6245 35.0202 34.7455C34.8271 34.9818 34.3123 35.0405 34.12 34.8483C33.9166 34.645 33.9895 33.4953 34.4275 29.996C34.6612 28.1286 34.9064 26.109 34.9724 25.508C35.1044 24.3057 35.3658 23.9532 36.0065 24.114C36.534 24.2463 36.7693 24.8156 37.6217 28.0224C38.3551 30.7812 38.7733 32.9634 38.6368 33.3189C38.4694 33.7551 37.8925 33.5897 37.7774 33.0726C37.7182 32.8062 37.5708 32.2317 37.45 31.7958L37.2304 31.0033L37.106 32.4122C36.9729 33.9191 36.8739 34.2223 36.4216 34.5074C35.9946 34.7767 35.9082 34.5853 35.824 33.1833C35.708 31.2543 35.4778 31.1501 35.329 32.9593ZM35.6616 12.5123C36.2631 17.7461 36.5053 21.2378 36.2852 21.5029C35.9936 21.8541 35.6349 21.8221 35.4228 21.4259C35.325 21.2433 35.1236 19.5197 34.9751 17.5956C34.6535 13.4296 34.2438 9.74022 34.0137 8.93997C33.7204 7.91992 33.1011 7.11494 32.3456 6.77201C31.9488 6.59185 31.4951 6.44272 31.3374 6.44059C31.1797 6.43846 30.9434 6.30755 30.8123 6.14966C30.5989 5.89263 30.6289 5.87358 31.099 5.96754C31.3878 6.02525 31.9412 6.12539 32.3288 6.19008C34.4583 6.54547 35.1202 7.8011 35.6616 12.5123ZM30.7976 7.75751C30.8708 7.99429 29.3108 8.30356 26.3904 8.63124C22.2402 9.0969 17.4969 8.86462 14.2705 8.03775C13.4295 7.82222 11.7653 7.12103 11.8631 7.02336C11.895 6.99145 12.747 7.07784 13.7565 7.21535C17.6717 7.74867 20.6163 7.89576 24.5769 7.75585C30.1132 7.56029 30.7368 7.56046 30.7976 7.75751Z" fill="#B34633"/>
<path d="M90.2817 26.741C90.5795 27.3231 90.9465 27.6435 91.5752 27.87C91.7863 27.9461 92.5559 27.9905 93.4003 27.9754C94.7487 27.9512 94.904 27.9244 95.4295 27.6246C96.3727 27.0867 96.774 26.3664 96.3298 26.0088C96.1939 25.8993 96.0509 25.9216 95.6655 26.1124C94.9418 26.4706 93.8318 26.4504 93.3767 26.0707L93.0353 25.7859L92.9649 18.0916H94.4198C95.2201 18.0916 95.9599 18.0599 96.064 18.0211C96.2876 17.9378 96.4401 17.2722 96.3316 16.8528L96.2551 16.5568H92.9744V15.1364C92.9744 13.7782 92.9626 13.7116 92.7052 13.6192C92.257 13.4584 92.0543 13.5922 91.625 14.3327C91.1143 15.2136 90.3067 15.9576 89.3548 16.4237C88.5568 16.8145 88.4419 16.9698 88.5526 17.5068C88.6391 17.9264 88.9039 18.0916 89.4901 18.0916H89.9155L89.9547 22.135C89.9933 26.1114 89.9988 26.1877 90.2817 26.741Z" fill="#B34633"/>
<path d="M105.417 27.0706C105.71 27.3387 106.472 27.748 106.967 27.9028C107.135 27.9551 108.148 27.9844 109.218 27.968C110.922 27.9418 111.256 27.9036 111.895 27.6629C112.867 27.2967 113.804 26.3881 114.004 25.6178C114.284 24.5415 114.115 23.4825 113.541 22.6996C113.134 22.146 112.036 21.5288 110.371 20.9195C108.492 20.2311 108.12 20.0525 107.741 19.6566C107.418 19.3176 107.361 18.6929 107.61 18.2096C107.938 17.5715 109.338 17.2903 110.281 17.6728C110.831 17.8958 111.42 18.5546 111.605 19.1535C111.787 19.7406 111.976 19.9011 112.472 19.8875C113.525 19.8584 113.944 18.9953 113.43 17.9145C113.148 17.3233 112.778 16.9893 112.063 16.6824C110.667 16.0835 108.091 16.1088 106.773 16.7344C105.284 17.4413 104.594 18.7285 104.885 20.257C105.119 21.485 105.974 22.287 107.735 22.9296C108.283 23.1297 109.193 23.4624 109.757 23.6689C111.034 24.1363 111.591 24.6231 111.591 25.2706C111.591 25.8399 111.318 26.208 110.693 26.4837C110.125 26.734 108.995 26.7792 108.259 26.5811C107.568 26.3949 106.679 25.5363 106.402 24.7877C106.144 24.0902 105.889 23.9758 105.277 24.2831C104.451 24.6975 104.529 26.2566 105.417 27.0706Z" fill="#B34633"/>
<path d="M172.977 26.8871C173.217 27.2623 173.526 27.5531 173.878 27.7335C174.339 27.9693 174.591 28.0082 175.658 28.0082C177.104 28.0082 177.703 27.8429 178.472 27.2314C178.867 26.9176 179 26.7283 179 26.48C179 26.0068 178.716 25.8053 178.362 26.027C177.871 26.3341 176.967 26.4918 176.458 26.359C175.515 26.1125 175.537 26.2128 175.497 21.9161L175.462 18.0915L176.957 18.0897C177.78 18.0888 178.527 18.0422 178.618 17.9863C178.862 17.8363 178.947 16.8769 178.731 16.7036C178.625 16.6177 177.979 16.5517 177.045 16.5311L175.532 16.4978L175.502 15.3172C175.462 13.7334 175.424 13.6054 175.005 13.6054C174.717 13.6054 174.604 13.7119 174.258 14.3074C173.746 15.191 173.052 15.8551 172.054 16.4172C171.333 16.8232 171.271 16.8908 171.235 17.3052C171.184 17.9023 171.371 18.0916 172.011 18.0916H172.537L172.612 26.3155L172.977 26.8871Z" fill="#B34633"/>
<path d="M78.3605 26.8894C77.9952 26.9673 77.7905 27.3592 77.9304 27.7128C77.99 27.8636 78.4276 27.8902 80.8506 27.8902H83.7006L83.7745 27.6044C83.8899 27.1583 83.7609 26.9974 83.1436 26.8175C82.6594 26.6763 82.5487 26.5869 82.4258 26.2374C82.2351 25.6946 82.2156 20.5777 82.4018 19.927C82.7813 18.6007 84.4222 18.1396 85.0582 19.1806C85.4367 19.8001 85.532 19.8624 86.1026 19.8624C87.1229 19.8624 87.7763 18.8762 87.512 17.735C87.2805 16.7354 86.7004 16.3207 85.5336 16.3207C84.6788 16.3207 84.0135 16.6534 83.1216 17.5268C82.3285 18.3035 82.3293 18.3038 82.2098 17.2641C82.1687 16.9065 82.088 16.5399 82.0304 16.4496C81.8962 16.2389 81.2439 16.3217 79.7725 16.7362C78.2464 17.1662 78.0756 17.2589 78.0345 17.6792C78.0049 17.9815 78.066 18.0666 78.4575 18.2686C79.2254 18.665 79.2303 18.694 79.1954 22.713C79.1666 26.0455 79.1463 26.3501 78.9386 26.5727C78.8145 26.7056 78.5544 26.8481 78.3605 26.8894Z" fill="#B34633"/>
<path d="M98.26 26.843C97.7228 27.0736 97.6198 27.2637 97.7937 27.7035C97.8579 27.8658 98.2133 27.8902 100.517 27.8902C103.359 27.8902 103.505 27.8599 103.418 27.2868C103.391 27.1135 103.245 26.9813 102.986 26.8967C102.124 26.6149 102.168 26.8822 102.1 21.4353C102.045 17.0128 102.019 16.511 101.836 16.399C101.609 16.26 99.6705 16.6818 98.4195 17.1425C97.7816 17.3774 97.7199 17.4316 97.7199 17.7554C97.7199 18.0571 97.7895 18.1371 98.183 18.2871C98.9908 18.595 98.9932 18.6058 99.0362 22.2988C99.0827 26.2824 99.0445 26.5063 98.26 26.843Z" fill="#B34633"/>
<path d="M128.873 26.8716C128.383 27.0617 128.282 27.2631 128.456 27.7035C128.521 27.8659 128.877 27.8902 131.192 27.8902H133.853L133.93 27.5953C134.043 27.1551 133.935 27.0055 133.386 26.8459C133.112 26.7664 132.833 26.6004 132.765 26.4771C132.69 26.3407 132.641 24.9671 132.641 22.9673C132.641 19.2637 132.68 19.0771 133.534 18.6472C134.038 18.3931 135.201 18.258 135.856 18.3772C136.39 18.4743 137.119 19.0698 137.344 19.5911C137.542 20.0524 137.583 26.1169 137.39 26.4671C137.325 26.5849 137.048 26.7682 136.774 26.8745C136.319 27.0511 136.28 27.1007 136.314 27.4495L136.352 27.8312L139.014 27.863C141.873 27.8973 142.053 27.8642 141.986 27.3169C141.958 27.0853 141.854 26.9959 141.524 26.9177C141.289 26.8623 140.974 26.6836 140.824 26.5206C140.554 26.228 140.55 26.1819 140.55 22.8721C140.55 18.6547 140.449 18.1084 139.5 17.2144C138.883 16.6331 137.953 16.3207 136.84 16.3207C135.435 16.3207 134.8 16.5035 133.713 17.2212C133.182 17.5724 132.696 17.8291 132.633 17.7916C132.571 17.7541 132.519 17.5106 132.519 17.2505C132.519 16.6392 132.338 16.3207 131.989 16.3207C131.701 16.3207 129.303 16.9382 128.726 17.1611C128.115 17.3969 128.142 17.9873 128.775 18.2012C129.635 18.4921 129.599 18.3068 129.599 22.4857C129.599 24.696 129.55 26.3415 129.481 26.4671C129.416 26.5849 129.142 26.7669 128.873 26.8716Z" fill="#B34633"/>
<path d="M161.326 26.9207C160.996 27.0572 160.911 27.3119 161.066 27.7035C161.13 27.8662 161.495 27.8902 163.901 27.8902C166.826 27.8902 166.954 27.8668 166.954 27.3316C166.954 27.0395 166.936 27.0285 166.134 26.8292C165.283 26.6179 165.251 26.4808 165.251 23.052C165.251 19.789 165.292 19.5574 165.973 19.001C166.266 18.762 166.496 18.6819 166.89 18.6819C167.339 18.6819 167.47 18.7424 167.793 19.0992C168.001 19.3287 168.171 19.5625 168.171 19.6189C168.171 19.7689 168.788 19.9338 169.175 19.8871C169.359 19.8649 169.701 19.6713 169.935 19.457C170.342 19.0844 170.361 19.0313 170.359 18.2547C170.356 16.9644 169.913 16.4414 168.741 16.3472C167.852 16.2756 167.149 16.5919 166.169 17.5049C165.744 17.9008 165.367 18.1784 165.331 18.1217C165.295 18.0651 165.253 17.6891 165.238 17.2861C165.198 16.2239 165.153 16.2084 163.374 16.645C161.254 17.1649 160.992 17.2848 160.992 17.7339C160.992 18.0174 161.065 18.1268 161.326 18.2347C161.511 18.3106 161.784 18.4781 161.935 18.6069C162.208 18.8405 162.209 18.8508 162.209 22.5777C162.209 26.3046 162.208 26.3149 161.935 26.5485C161.784 26.6773 161.511 26.8448 161.326 26.9207Z" fill="#B34633"/>
<path d="M99.4018 11.2182C98.2072 11.9826 98.1498 13.5434 99.2892 14.2819C99.8139 14.6219 100.765 14.6445 101.372 14.3313C102.552 13.7232 102.678 12.1908 101.621 11.3273C101.288 11.0557 101.118 11.0085 100.479 11.009C99.966 11.0095 99.6241 11.0759 99.4018 11.2182Z" fill="#B34633"/>
<path fill-rule="evenodd" clip-rule="evenodd" d="M60.1521 27.812C60.0684 27.7793 60 27.5956 60 27.4039C60 27.1041 60.0753 27.0241 60.5397 26.8309C60.8365 26.7075 61.1713 26.4704 61.2836 26.3041C61.3959 26.1378 61.9779 24.6868 62.5768 23.0796C63.1758 21.4725 64.2646 18.5716 64.9965 16.6332C65.7919 14.5265 66.3272 12.9339 66.3272 12.6738C66.3272 12.4345 66.2188 12.0324 66.0863 11.7802C65.7077 11.0596 65.8418 10.9954 67.6437 11.0343L69.1679 11.0672L69.5174 11.8936C69.799 12.5594 71.682 17.3086 74.7931 25.1991C75.1917 26.2103 75.4821 26.5615 76.1484 26.8386C76.6432 27.0444 76.6823 27.0921 76.6471 27.4465L76.6089 27.8312L73.6429 27.8628C70.4979 27.8964 70.3425 27.8721 70.3425 27.3469C70.3425 27.1406 70.4697 27.0056 70.8341 26.8253C71.6134 26.4395 71.6292 26.2328 71.006 24.5692C70.708 23.7738 70.4642 23.1056 70.4642 23.0844C70.4642 23.0632 69.0818 23.06 67.3923 23.0774L64.3204 23.1089L63.8603 24.4076C63.3808 25.7609 63.3533 26.208 63.7252 26.6067C63.8317 26.7209 64.0737 26.8473 64.2629 26.8876C64.763 26.9942 64.9353 27.2377 64.7659 27.5986L64.6289 27.8902L62.4666 27.8809C61.2772 27.8757 60.2357 27.8448 60.1521 27.812ZM69.502 20.4784C69.6966 20.9795 69.8558 21.4178 69.8558 21.4523C69.8558 21.4869 68.7607 21.5152 67.4223 21.5152C65.5561 21.5152 64.9891 21.4808 64.9896 21.3676C64.9905 21.2088 65.4242 19.924 65.8961 18.6818C66.0564 18.2598 66.3904 17.3567 66.6381 16.6749C67.1587 15.2426 67.2733 14.915 67.3441 14.9237C67.3687 14.9267 67.388 14.9702 67.4172 15.0221C67.4718 15.1195 67.8837 16.182 68.3324 17.3832C68.781 18.5844 69.3074 19.9773 69.502 20.4784Z" fill="#B34633"/>
<path fill-rule="evenodd" clip-rule="evenodd" d="M117.437 27.822C116.42 27.3941 115.843 26.692 115.685 25.6889C115.419 24.0075 116.421 22.5831 118.376 21.8648C118.997 21.6364 119.568 21.5062 122.042 21.028L122.698 20.9012L122.626 19.9157C122.55 18.8601 122.387 18.4382 121.88 17.9788C121.272 17.4278 119.673 17.5219 119.144 18.1399C119.059 18.24 118.871 18.6534 118.727 19.0585C118.529 19.6165 118.366 19.8605 118.052 20.0648C116.596 21.0151 115.67 19.146 116.904 17.7472C117.821 16.7069 118.872 16.323 120.833 16.3122C122.89 16.3008 123.84 16.6048 124.696 17.5484C125.458 18.3879 125.506 18.6671 125.58 22.5951C125.633 25.4701 125.64 26.256 126.016 26.4942C126.165 26.5885 126.372 26.5969 126.662 26.6152C127.219 26.6501 127.227 26.656 127.227 27.0638C127.227 27.4281 127.169 27.5047 126.74 27.7114C126.409 27.8708 125.933 27.9597 125.252 27.9891C124.411 28.0254 124.164 27.9908 123.698 27.772C123.138 27.5093 122.785 27.0549 122.785 26.5974C122.785 26.4643 122.752 26.3555 122.71 26.3555C122.669 26.3555 122.317 26.6414 121.928 26.9908C121.498 27.3774 120.994 27.701 120.643 27.8172C119.892 28.0656 118.022 28.0684 117.437 27.822ZM122.56 25.0277C122.443 25.4208 121.825 26.0069 121.267 26.2526C120.278 26.6887 119.217 26.409 118.882 25.6235C118.402 24.5006 118.917 23.2942 120.136 22.6844C120.649 22.4276 122.266 22.0681 122.506 22.1573C122.623 22.2009 122.66 22.5464 122.652 23.4889C122.645 24.1889 122.604 24.8814 122.56 25.0277Z" fill="#B34633"/>
<path fill-rule="evenodd" clip-rule="evenodd" d="M143.131 27.7426C143.062 27.6615 143.034 27.4493 143.069 27.2711C143.12 27.0159 143.237 26.917 143.62 26.8057C143.953 26.7089 144.197 26.5315 144.393 26.2437C144.551 26.0123 145.251 24.3092 145.948 22.459C146.646 20.6088 147.742 17.7111 148.385 16.0197C149.028 14.3282 149.554 12.8176 149.554 12.6628C149.554 12.508 149.444 12.1595 149.308 11.8883C148.895 11.0598 148.981 11.0082 150.782 11.0082H152.35L152.544 11.4509C152.65 11.6944 154.001 15.0812 155.545 18.977C157.089 22.8728 158.431 26.1774 158.527 26.3205C158.622 26.4636 158.856 26.6475 159.047 26.7292C159.237 26.8109 159.369 26.9147 159.34 26.9598C159.312 27.0049 159.392 27.0153 159.52 26.983C159.813 26.9087 159.966 27.3082 159.776 27.6517C159.646 27.8878 159.562 27.8935 156.637 27.8628L153.63 27.8312L153.592 27.4495C153.558 27.1008 153.597 27.0511 154.052 26.8746C154.875 26.555 154.886 26.4248 154.236 24.631L153.664 23.05H150.64C148.562 23.05 147.872 22.9871 147.529 23.2921C147.296 23.4999 147.224 23.8787 146.985 24.5647C146.792 25.1195 146.634 25.7494 146.634 25.9645C146.634 26.449 146.964 26.7885 147.536 26.8926C148.015 26.9799 148.184 27.2707 147.975 27.6497C147.849 27.8787 147.732 27.8903 145.549 27.8903C143.864 27.8903 143.224 27.8512 143.131 27.7426ZM151.805 18.003C152.461 19.7724 153.022 21.2865 153.053 21.3676C153.097 21.4827 152.553 21.5152 150.589 21.5152C148.343 21.5152 148.076 21.4949 148.142 21.329C148.583 20.2125 150.406 15.0803 150.406 14.9534C150.406 14.4039 150.743 15.1381 151.805 18.003Z" fill="#B34633"/>
</svg>
